<svg id="arrow-right-v2" xmlns="http://www.w3.org/2000/svg" width="64" height="64" viewBox="0 0 64 64">
  <g id="Path_3413" data-name="Path 3413" fill="#fff" opacity="0">
    <path d="M 32 63 C 27.81459045410156 63 23.7548999786377 62.18050003051758 19.9337100982666 60.56428146362305 C 16.24237060546875 59.00297164916992 12.92700004577637 56.76762008666992 10.07968997955322 53.92031097412109 C 7.232379913330078 51.07300186157227 4.997029781341553 47.75762939453125 3.435719966888428 44.06629180908203 C 1.819499969482422 40.24509811401367 1 36.18540954589844 1 32 C 1 27.81459045410156 1.819499969482422 23.7548999786377 3.435719966888428 19.9337100982666 C 4.997029781341553 16.24237060546875 7.232379913330078 12.92700004577637 10.07968997955322 10.07968997955322 C 12.92700004577637 7.232379913330078 16.24237060546875 4.997029781341553 19.9337100982666 3.435719966888428 C 23.7548999786377 1.819499969482422 27.81459045410156 1 32 1 C 36.18540954589844 1 40.24509811401367 1.819499969482422 44.06629180908203 3.435719966888428 C 47.75762939453125 4.997029781341553 51.07300186157227 7.232379913330078 53.92031097412109 10.07968997955322 C 56.76762008666992 12.92700004577637 59.00297164916992 16.24237060546875 60.56428146362305 19.9337100982666 C 62.18050003051758 23.7548999786377 63 27.81459045410156 63 32 C 63 36.18540954589844 62.18050003051758 40.24509811401367 60.56428146362305 44.06629180908203 C 59.00297164916992 47.75762939453125 56.76762008666992 51.07300186157227 53.92031097412109 53.92031097412109 C 51.07300186157227 56.76762008666992 47.75762939453125 59.00297164916992 44.06629180908203 60.56428146362305 C 40.24509811401367 62.18050003051758 36.18540954589844 63 32 63 Z" stroke="none"/>
    <path d="M 32 2 C 27.94915008544922 2 24.0205192565918 2.792919158935547 20.32326126098633 4.356731414794922 C 16.75112152099609 5.867618560791016 13.5425910949707 8.030998229980469 10.78680038452148 10.78680038452148 C 8.030998229980469 13.5425910949707 5.867618560791016 16.75112152099609 4.356731414794922 20.32326126098633 C 2.792919158935547 24.0205192565918 2 27.94915008544922 2 32 C 2 36.05084991455078 2.792919158935547 39.9794807434082 4.356731414794922 43.67674255371094 C 5.867618560791016 47.24887847900391 8.030998229980469 50.4574089050293 10.78680038452148 53.21319961547852 C 13.5425910949707 55.96900177001953 16.75112152099609 58.13238143920898 20.32326126098633 59.64326858520508 C 24.0205192565918 61.20708084106445 27.94915008544922 62 32 62 C 36.05084991455078 62 39.9794807434082 61.20708084106445 43.67674255371094 59.64326858520508 C 47.24887847900391 58.13238143920898 50.4574089050293 55.96900177001953 53.21319961547852 53.21319961547852 C 55.96900177001953 50.4574089050293 58.13238143920898 47.24887847900391 59.64326858520508 43.67674255371094 C 61.20708084106445 39.9794807434082 62 36.05084991455078 62 32 C 62 27.94915008544922 61.20708084106445 24.0205192565918 59.64326858520508 20.32326126098633 C 58.13238143920898 16.75112152099609 55.96900177001953 13.5425910949707 53.21319961547852 10.78680038452148 C 50.4574089050293 8.030998229980469 47.24887847900391 5.867618560791016 43.67674255371094 4.356731414794922 C 39.9794807434082 2.792919158935547 36.05084991455078 2 32 2 M 32 0 C 49.67311096191406 0 64 14.32688903808594 64 32 C 64 49.67311096191406 49.67311096191406 64 32 64 C 14.32688903808594 64 0 49.67311096191406 0 32 C 0 14.32688903808594 14.32688903808594 0 32 0 Z" stroke="none" fill="#f5f7fa"/>
  </g>
  <g id="Ellipse_5" data-name="Ellipse 5" fill="none" stroke="#fff" stroke-width="2">
    <circle cx="32" cy="32" r="32" stroke="none"/>
    <circle cx="32" cy="32" r="31" fill="none"/>
  </g>
  <g id="Group_1630" data-name="Group 1630" transform="translate(-1159.5 -406)" opacity="0.997">
    <line id="Line_11" data-name="Line 11" x2="12" y2="12" transform="translate(1187.5 426)" fill="none" stroke="#7041ac" stroke-linecap="round" stroke-width="4"/>
    <line id="Line_12" data-name="Line 12" y1="12" x2="12" transform="translate(1187.5 438)" fill="none" stroke="#7041ac" stroke-linecap="round" stroke-width="4"/>
  </g>
</svg>
