<svg xmlns="http://www.w3.org/2000/svg" width="160" height="35.311" viewBox="0 0 160 35.311">
  <path id="dhl-logo" d="M-242.644,157.8l1.183-1.608h20.371V131.808h-160v21.4h23.835l-1.185,1.606h-22.65v1.378h21.636l-1.182,1.609H-381.09v1.378h19.439l-1.176,1.6H-381.09v6.343h160v-6.343l-23.745,0,1.176-1.6h22.569V157.8Zm3.379-4.592h18.176v1.607h-19.357Zm-9.409-15.058-9.823,13.344h-15.558s9.824-13.344,9.829-13.344ZM-358.065,145.1l5.112-6.946h29.483c7.486,0,9.4,5.914,7.305,8.756-1.539,2.089-3.376,4.588-3.376,4.588h-11.393c-2.165,0-1.512-.889-1.15-1.377.712-.961,1.882-2.607,2.581-3.554.688-.932.707-1.467-.7-1.467Zm22.969,15.681h-25.038l10.268-13.951h12.742c1.408,0,1.39.535.7,1.468s-1.888,2.576-2.6,3.537c-.362.487-1.015,1.378,1.15,1.378h17.07A17.727,17.727,0,0,1-335.1,160.776Zm28.2,0h-14.688s5.565-7.568,5.569-7.568l14.686,0Zm21.237,0h-14.682s5.565-7.568,5.569-7.568h14.683Zm-29.094-9.283,9.824-13.344h14.683l-5.631,7.652h6.555l5.632-7.652h14.682l-9.821,13.344Zm67.231,9.283H-271.1c-6.019,0-7.649-2.9-5.805-5.4.522-.705,1.6-2.172,1.6-2.172h33.36Z" transform="translate(381.09 -131.808)" fill="#aaa"/>
</svg>
