<svg xmlns="http://www.w3.org/2000/svg" width="48" height="48" viewBox="0 0 48 48">
  <g id="fb-icon-share" transform="translate(-520 -1079)">
    <circle id="Ellipse_46" data-name="Ellipse 46" cx="24" cy="24" r="24" transform="translate(520 1079)" fill="#f5f7fa"/>
    <path id="Facebook" d="M375.63,814.845a1.413,1.413,0,0,1-1.413,1.413h-6.524v-9.914h3.328l.5-3.863h-3.826v-2.466c0-1.119.311-1.881,1.915-1.881h2.046v-3.455a27.224,27.224,0,0,0-2.981-.153c-2.95,0-4.969,1.8-4.969,5.107v2.849h-3.336v3.863H363.7v9.914H351.443a1.413,1.413,0,0,1-1.413-1.413V792.071a1.413,1.413,0,0,1,1.413-1.413h22.774a1.413,1.413,0,0,1,1.413,1.413Z" transform="translate(181.17 299.542)" fill="#633998"/>
  </g>
</svg>
