<svg xmlns="http://www.w3.org/2000/svg" width="140" height="42.701" viewBox="0 0 140 42.701">
  <g id="fedex-logo" transform="translate(781.956 -17.932)">
    <path id="Path_65" data-name="Path 65" d="M-688.07,59.133v-41.2H-665.2v9.184h-13.18v5.863h13.18v8.836h-13.18v8.111h13.18v9.207Zm46.142,0-5.709-6.4-5.659,6.4H-665.2l11.639-13.075L-665.2,32.979h12.279l5.768,6.354,5.549-6.354h11.851L-641.338,46-629.6,59.133Z" transform="translate(-12.359)" fill="#aaa"/>
    <g id="Group_40" data-name="Group 40" transform="translate(-781.956 17.932)">
      <path id="Path_66" data-name="Path 66" d="M-716.549,52.864c-3.556,0-5.765-3.313-5.765-6.772,0-3.7,1.923-7.253,5.765-7.253,3.987,0,5.575,3.555,5.575,7.253,0,3.5-1.682,6.772-5.575,6.772M-750.83,41.94a5.283,5.283,0,0,1,5.172-4.33,5.024,5.024,0,0,1,5.222,4.33Zm40.136-24.008V34.794h-.107a9.777,9.777,0,0,0-7.9-3.31c-6.343,0-11.12,4.315-12.8,10.015-1.913-6.282-6.846-10.132-14.159-10.132-5.94,0-10.63,2.666-13.079,7.009v-5.4h-12.277V27.117h13.4V17.934h-24.343v41.2h10.944V41.816H-760.1a16.471,16.471,0,0,0-.5,4.073c0,8.59,6.564,14.627,14.945,14.627,7.046,0,11.693-3.31,14.147-9.337h-9.379c-1.268,1.814-2.231,2.349-4.767,2.349a5.635,5.635,0,0,1-5.477-5.6h19.1c.828,6.824,6.145,12.708,13.443,12.708A9.344,9.344,0,0,0-710.8,56.47h.106v2.669h9.648V17.934h-9.647Z" transform="translate(781.956 -17.932)" fill="#aaa"/>
    </g>
  </g>
</svg>
