<svg xmlns="http://www.w3.org/2000/svg" width="67" height="61.782" viewBox="0 0 67 61.782">
  <g id="icon-box" transform="translate(-34.738 -273.497)">
    <rect id="Rectangle_126" data-name="Rectangle 126" width="21.657" height="26.138" transform="matrix(0.707, -0.707, 0.707, 0.707, 42.076, 314.676)" fill="none" stroke="#7041ac" stroke-linecap="round" stroke-linejoin="round" stroke-width="3"/>
    <path id="Path_49" data-name="Path 49" d="M61.512,299.836l-7.129-7.129-5.676,5.677,4.749,2.379,2.38,4.75Z" transform="translate(8.683 12.332)" fill="none" stroke="#7041ac" stroke-linecap="round" stroke-linejoin="round" stroke-width="3"/>
    <path id="Path_50" data-name="Path 50" d="M53.669,280.9a20.171,20.171,0,0,1,28.526,28.526" transform="translate(12.138 0)" fill="none" stroke="#7041ac" stroke-linecap="round" stroke-linejoin="round" stroke-width="3"/>
    <path id="Path_51" data-name="Path 51" d="M58.869,287.713c7.874-7.876,16.7-11.825,19.7-8.819s-.943,11.827-8.818,19.7" transform="translate(15.759 2.012)" fill="none" stroke="#7041ac" stroke-linecap="round" stroke-linejoin="round" stroke-width="3"/>
    <path id="Path_52" data-name="Path 52" d="M62.49,287.3a8.819,8.819,0,0,1-8.821-8.821" transform="translate(12.138 2.424)" fill="none" stroke="#7041ac" stroke-linecap="round" stroke-linejoin="round" stroke-width="3"/>
    <path id="Path_53" data-name="Path 53" d="M74.106,298.916a8.82,8.82,0,0,1-8.821-8.821" transform="translate(20.227 10.513)" fill="none" stroke="#7041ac" stroke-linecap="round" stroke-linejoin="round" stroke-width="3"/>
    <path id="Path_54" data-name="Path 54" d="M69.753,294.563a10.88,10.88,0,0,1-10.884-10.884" transform="translate(15.759 6.045)" fill="none" stroke="#7041ac" stroke-linecap="round" stroke-linejoin="round" stroke-width="3"/>
    <line id="Line_18" data-name="Line 18" x2="0.819" y2="27.074" transform="translate(65.836 281.505)" fill="none" stroke="#7041ac" stroke-linecap="round" stroke-linejoin="round" stroke-width="3"/>
    <line id="Line_19" data-name="Line 19" x1="15.625" y1="0.472" transform="translate(66.655 308.579)" fill="none" stroke="#7041ac" stroke-linecap="round" stroke-linejoin="round" stroke-width="3"/>
    <line id="Line_20" data-name="Line 20" x2="8.482" transform="translate(54.049 274.997)" fill="none" stroke="#7041ac" stroke-linecap="round" stroke-linejoin="round" stroke-width="3"/>
    <line id="Line_21" data-name="Line 21" x2="3.393" transform="translate(43.871 274.997)" fill="none" stroke="#7041ac" stroke-linecap="round" stroke-linejoin="round" stroke-width="3"/>
    <line id="Line_22" data-name="Line 22" x2="8.482" transform="translate(48.112 287.839)" fill="none" stroke="#7041ac" stroke-linecap="round" stroke-linejoin="round" stroke-width="3"/>
    <line id="Line_23" data-name="Line 23" x2="3.393" transform="translate(36.238 287.839)" fill="none" stroke="#7041ac" stroke-linecap="round" stroke-linejoin="round" stroke-width="3"/>
    <path id="Path_55" data-name="Path 55" d="M44.641,287.484" transform="translate(5.852 8.695)" fill="none" stroke="#7041ac" stroke-linecap="round" stroke-linejoin="round" stroke-width="3"/>
    <line id="Line_24" data-name="Line 24" x2="6.949" transform="translate(40.315 296.179)" fill="none" stroke="#7041ac" stroke-linecap="round" stroke-linejoin="round" stroke-width="3"/>
    <line id="Line_25" data-name="Line 25" y1="11.159" x2="11.159" transform="translate(66.655 297.42)" fill="none" stroke="#7041ac" stroke-linecap="round" stroke-linejoin="round" stroke-width="3"/>
  </g>
</svg>
