<svg xmlns="http://www.w3.org/2000/svg" width="59.023" height="59.024" viewBox="0 0 59.023 59.024">
  <g id="icon-airplane" transform="translate(-106.695 -141.448)">
    <path id="Path_38" data-name="Path 38" d="M160,143.62c1.677,1.679-.139,6.013-2.656,8.529l-30.886,30.885c-8.808,8.806-14.538,8.669-14.538,8.669s-.141-5.732,8.667-14.542l30.886-30.884C153.982,143.761,158.319,141.943,160,143.62Z" transform="translate(3.551 0)" fill="none" stroke="#7041ac" stroke-linecap="round" stroke-linejoin="round" stroke-width="3"/>
    <path id="Path_39" data-name="Path 39" d="M117.5,169.305l-9.309-6.262,2.935-2.935,13,.7" transform="translate(0 16.354)" fill="none" stroke="#7041ac" stroke-linecap="round" stroke-linejoin="round" stroke-width="3"/>
    <path id="Path_40" data-name="Path 40" d="M115.007,170.1l6.261,9.31,2.935-2.936-.7-13" transform="translate(6.501 19.563)" fill="none" stroke="#7041ac" stroke-linecap="round" stroke-linejoin="round" stroke-width="3"/>
    <path id="Path_41" data-name="Path 41" d="M129.033,159.169l-19.056-9.729,5.754-4.706,29.857,7.593" transform="translate(1.7 1.681)" fill="none" stroke="#7041ac" stroke-linecap="round" stroke-linejoin="round" stroke-width="3"/>
    <path id="Path_42" data-name="Path 42" d="M127.7,168.179l9.729,19.056,4.706-5.754-7.593-29.857" transform="translate(18.616 8.257)" fill="none" stroke="#7041ac" stroke-linecap="round" stroke-linejoin="round" stroke-width="3"/>
  </g>
</svg>
