<svg xmlns="http://www.w3.org/2000/svg" width="67" height="35.226" viewBox="0 0 67 35.226">
  <g id="icon-car" transform="translate(-97.048 -77.061)">
    <path id="Path_29" data-name="Path 29" d="M106.665,80.761a2.2,2.2,0,0,1,2.2-2.2h26.4a2.2,2.2,0,0,1,2.2,2.2v25.49" transform="translate(3.44 0)" fill="none" stroke="#7041ac" stroke-linecap="round" stroke-linejoin="round" stroke-width="3"/>
    <line id="Line_1" data-name="Line 1" y1="9.317" transform="translate(110.104 96.934)" fill="none" stroke="#7041ac" stroke-linecap="round" stroke-linejoin="round" stroke-width="3"/>
    <line id="Line_2" data-name="Line 2" x1="6.786" transform="translate(110.104 106.251)" fill="none" stroke="#7041ac" stroke-linecap="round" stroke-linejoin="round" stroke-width="3"/>
    <line id="Line_3" data-name="Line 3" x1="21.8" transform="translate(125.965 106.251)" fill="none" stroke="#7041ac" stroke-linecap="round" stroke-linejoin="round" stroke-width="3"/>
    <path id="Path_30" data-name="Path 30" d="M131.9,90.651h11.281a5.238,5.238,0,0,1,5.238,5.24v5.237h-5.707" transform="translate(14.133 5.124)" fill="none" stroke="#7041ac" stroke-linecap="round" stroke-linejoin="round" stroke-width="3"/>
    <path id="Path_31" data-name="Path 31" d="M143.475,93l-7.358-7.879H128.3" transform="translate(12.609 2.778)" fill="none" stroke="#7041ac" stroke-linecap="round" stroke-linejoin="round" stroke-width="3"/>
    <path id="Path_32" data-name="Path 32" d="M120.5,99.359a4.537,4.537,0,1,1-4.536-4.536A4.537,4.537,0,0,1,120.5,99.359Z" transform="translate(5.46 6.892)" fill="none" stroke="#7041ac" stroke-linecap="round" stroke-linejoin="round" stroke-width="3"/>
    <path id="Path_33" data-name="Path 33" d="M142.191,99.359a4.538,4.538,0,1,1-4.538-4.536A4.538,4.538,0,0,1,142.191,99.359Z" transform="translate(14.65 6.892)" fill="none" stroke="#7041ac" stroke-linecap="round" stroke-linejoin="round" stroke-width="3"/>
    <line id="Line_4" data-name="Line 4" x2="14.238" transform="translate(107.091 85.544)" fill="none" stroke="#7041ac" stroke-linecap="round" stroke-linejoin="round" stroke-width="3"/>
    <line id="Line_5" data-name="Line 5" x2="2.848" transform="translate(98.548 85.544)" fill="none" stroke="#7041ac" stroke-linecap="round" stroke-linejoin="round" stroke-width="3"/>
    <line id="Line_6" data-name="Line 6" x2="17.086" transform="translate(109.315 96.935)" fill="none" stroke="#7041ac" stroke-linecap="round" stroke-linejoin="round" stroke-width="3"/>
    <line id="Line_7" data-name="Line 7" x2="17.086" transform="translate(117.858 91.239)" fill="none" stroke="#7041ac" stroke-linecap="round" stroke-linejoin="round" stroke-width="3"/>
    <line id="Line_8" data-name="Line 8" x2="2.848" transform="translate(100.772 96.935)" fill="none" stroke="#7041ac" stroke-linecap="round" stroke-linejoin="round" stroke-width="3"/>
    <line id="Line_9" data-name="Line 9" x2="2.848" transform="translate(109.771 91.239)" fill="none" stroke="#7041ac" stroke-linecap="round" stroke-linejoin="round" stroke-width="3"/>
  </g>
</svg>
