<svg xmlns="http://www.w3.org/2000/svg" width="108.079" height="90" viewBox="0 0 108.079 90">
  <g id="logo-square-white" transform="translate(0 -2)">
    <g id="Group_8" data-name="Group 8" transform="translate(66.223 83.273)">
      <path id="Path_10" data-name="Path 10" d="M94.392,100.153v7.312H92.939v-7.312h-2.72v-1.3h6.905v1.3Z" transform="translate(-90.219 -98.788)" fill="#fff"/>
      <path id="Path_11" data-name="Path 11" d="M100.079,104.854c-.124.012-.258.012-.395.012H97.642v2.6H96.189V98.849h3.5c2.2,0,3.471,1.071,3.471,2.941a2.769,2.769,0,0,1-1.785,2.794l1.932,2.881h-1.648Zm-.395-1.292c1.329,0,2.093-.565,2.093-1.736,0-1.132-.765-1.674-2.093-1.674H97.642v3.41Z" transform="translate(-88.037 -98.788)" fill="#fff"/>
      <path id="Path_12" data-name="Path 12" d="M104.228,105.519l-.825,1.946h-1.514l3.8-8.616h1.488l3.767,8.616H109.4l-.825-1.946Zm2.166-5.119-1.625,3.827h3.25Z" transform="translate(-85.954 -98.788)" fill="#fff"/>
      <path id="Path_13" data-name="Path 13" d="M115.41,107.465l-4.592-6.18v6.18h-1.451V98.849h1.427l4.617,6.191V98.849h1.427v8.616Z" transform="translate(-83.221 -98.788)" fill="#fff"/>
      <path id="Path_14" data-name="Path 14" d="M122.573,99.69l-.6,1.279a5.137,5.137,0,0,0-2.522-.8c-.849,0-1.4.321-1.4.9,0,1.884,4.651.874,4.64,3.976,0,1.539-1.355,2.487-3.25,2.487a5.3,5.3,0,0,1-3.52-1.367l.628-1.255a4.547,4.547,0,0,0,2.917,1.255c1.009,0,1.613-.381,1.613-1.046,0-1.921-4.652-.849-4.652-3.915,0-1.477,1.267-2.4,3.138-2.4A5.607,5.607,0,0,1,122.573,99.69Z" transform="translate(-80.828 -98.804)" fill="#fff"/>
    </g>
    <g id="Group_13" data-name="Group 13" transform="translate(0 2)">
      <g id="Group_9" data-name="Group 9" transform="translate(41.557)">
        <path id="Path_15" data-name="Path 15" d="M110.111,60.54c0,10.938-7.273,17.855-18.86,17.855-11.646,0-19.1-6.918-19.1-17.855v-24H82.679v24c0,5.618,3.606,9.046,8.631,9.046,4.966,0,8.336-3.429,8.336-9.046V44.578h10.465Z" transform="translate(-72.155 -36.538)" fill="#fff"/>
      </g>
      <g id="Group_10" data-name="Group 10" transform="translate(39.547 47.74)">
        <path id="Path_16" data-name="Path 16" d="M93.061,107.643c-6.287-.049-11.616-5.407-11.616-12.351a11.893,11.893,0,0,1,11.7-12.237c6.386,0,11.47,5.261,11.47,12.237h10.816c0-.02,0-.04,0-.059,0-12-9.578-20.987-22.406-20.987-12.77,0-22.348,8.928-22.348,20.987,0,12.119,9.578,21.224,22.348,21.224h.03Z" transform="translate(-70.683 -74.246)" fill="#fff"/>
      </g>
      <g id="Group_11" data-name="Group 11" transform="translate(0 48.095)">
        <path id="Path_17" data-name="Path 17" d="M69.39,93.956a9.265,9.265,0,0,0,7.094-9.105c0-6.326-5.913-10.345-15.194-10.345H41.721V115.89H62c9.754,0,15.9-4.434,15.9-11.47A10.2,10.2,0,0,0,69.39,93.956Zm-17.2-11.409H60.7c3.074,0,5.025,1.536,5.025,4.2S63.772,91.06,60.7,91.06H52.186ZM60.7,107.79H52.186V98.627H60.7c3.9,0,6.326,1.715,6.326,4.492C67.025,106.076,64.6,107.79,60.7,107.79Z" transform="translate(-41.721 -74.506)" fill="#fff"/>
      </g>
      <g id="Group_12" data-name="Group 12">
        <path id="Path_18" data-name="Path 18" d="M69.39,55.988a9.265,9.265,0,0,0,7.094-9.105c0-6.326-5.913-10.345-15.194-10.345H41.721V77.922H62c9.754,0,15.9-4.434,15.9-11.47A10.2,10.2,0,0,0,69.39,55.988Zm-17.2-11.41H60.7c3.074,0,5.025,1.538,5.025,4.2s-1.951,4.316-5.025,4.316H52.186ZM60.7,69.822H52.186V60.659H60.7c3.9,0,6.326,1.715,6.326,4.492C67.025,68.108,64.6,69.822,60.7,69.822Z" transform="translate(-41.721 -36.538)" fill="#fff"/>
      </g>
    </g>
  </g>
</svg>
