<svg xmlns="http://www.w3.org/2000/svg" width="60.044" height="50" viewBox="0 0 60.044 50">
  <g id="logo_-_square" data-name="logo - square" transform="translate(0 -2)">
    <g id="Group_8" data-name="Group 8" transform="translate(36.791 47.152)">
      <path id="Path_10" data-name="Path 10" d="M92.537,99.573v4.062H91.73V99.573H90.219v-.724h3.836v.724Z" transform="translate(-90.219 -98.815)" fill="#7041ac"/>
      <path id="Path_11" data-name="Path 11" d="M98.35,102.185c-.069.007-.143.007-.219.007H97v1.444h-.807V98.849h1.942c1.224,0,1.928.595,1.928,1.634a1.538,1.538,0,0,1-.992,1.552l1.073,1.6h-.916Zm-.219-.718c.738,0,1.163-.314,1.163-.964,0-.629-.425-.93-1.163-.93H97v1.894Z" transform="translate(-91.66 -98.815)" fill="#7041ac"/>
      <path id="Path_12" data-name="Path 12" d="M103.188,102.555l-.458,1.081h-.841L104,98.849h.827l2.093,4.787h-.862l-.458-1.081Zm1.2-2.844-.9,2.126h1.805Z" transform="translate(-93.036 -98.815)" fill="#7041ac"/>
      <path id="Path_13" data-name="Path 13" d="M112.724,103.636l-2.551-3.433v3.433h-.806V98.849h.793l2.565,3.44v-3.44h.793v4.787Z" transform="translate(-94.841 -98.815)" fill="#7041ac"/>
      <path id="Path_14" data-name="Path 14" d="M119.614,99.3l-.336.711a2.854,2.854,0,0,0-1.4-.445c-.472,0-.779.178-.779.5,0,1.047,2.584.486,2.578,2.209,0,.855-.753,1.381-1.805,1.381a2.943,2.943,0,0,1-1.956-.759l.349-.7a2.526,2.526,0,0,0,1.62.7c.561,0,.9-.212.9-.581,0-1.067-2.585-.472-2.585-2.175,0-.821.7-1.333,1.743-1.333A3.115,3.115,0,0,1,119.614,99.3Z" transform="translate(-96.422 -98.804)" fill="#7041ac"/>
    </g>
    <g id="Group_13" data-name="Group 13" transform="translate(0 2)">
      <g id="Group_9" data-name="Group 9" transform="translate(23.087)">
        <path id="Path_15" data-name="Path 15" d="M93.242,49.873c0,6.076-4.04,9.919-10.478,9.919-6.47,0-10.609-3.843-10.609-9.919V36.538H78V49.873c0,3.121,2,5.026,4.8,5.026,2.759,0,4.631-1.9,4.631-5.026V41h5.814Z" transform="translate(-72.155 -36.538)" fill="#7041ac"/>
      </g>
      <g id="Group_10" data-name="Group 10" transform="translate(21.971 26.522)">
        <path id="Path_16" data-name="Path 16" d="M83.115,92.8a6.688,6.688,0,0,1-6.453-6.862,6.607,6.607,0,0,1,6.5-6.8,6.5,6.5,0,0,1,6.372,6.8h6.009c0-.011,0-.022,0-.033,0-6.667-5.321-11.66-12.448-11.66-7.094,0-12.415,4.96-12.415,11.66C70.683,92.638,76,97.7,83.1,97.7h.017Z" transform="translate(-70.683 -74.246)" fill="#7041ac"/>
      </g>
      <g id="Group_11" data-name="Group 11" transform="translate(0 26.719)">
        <path id="Path_17" data-name="Path 17" d="M57.093,85.312a5.147,5.147,0,0,0,3.941-5.058c0-3.515-3.285-5.747-8.441-5.747H41.721V97.5H52.987c5.419,0,8.835-2.463,8.835-6.372A5.666,5.666,0,0,0,57.093,85.312Zm-9.558-6.338h4.729c1.708,0,2.792.853,2.792,2.331s-1.084,2.4-2.792,2.4H47.535ZM52.264,93H47.535v-5.09h4.729c2.167,0,3.515.953,3.515,2.5C55.779,92.045,54.431,93,52.264,93Z" transform="translate(-41.721 -74.506)" fill="#7041ac"/>
      </g>
      <g id="Group_12" data-name="Group 12">
        <path id="Path_18" data-name="Path 18" d="M57.093,47.344a5.147,5.147,0,0,0,3.941-5.058c0-3.515-3.285-5.747-8.441-5.747H41.721V59.529H52.987c5.419,0,8.835-2.463,8.835-6.372A5.666,5.666,0,0,0,57.093,47.344ZM47.535,41h4.729c1.708,0,2.792.854,2.792,2.332s-1.084,2.4-2.792,2.4H47.535Zm4.729,14.024H47.535v-5.09h4.729c2.167,0,3.515.953,3.515,2.5C55.779,54.077,54.431,55.029,52.264,55.029Z" transform="translate(-41.721 -36.538)" fill="#7041ac"/>
      </g>
    </g>
  </g>
</svg>
