<svg xmlns="http://www.w3.org/2000/svg" width="329" height="100" viewBox="0 0 329 100">
  <g id="ref-logo-olymlus" transform="translate(2034 -3609)">
    <rect id="Rectangle_257" data-name="Rectangle 257" width="329" height="100" rx="9" transform="translate(-2034 3609)" fill="#fff"/>
    <g id="Ebene_x0020_1" transform="translate(-1970.165 3636.981)">
      <g id="_138079608" transform="translate(0.665 3.019)">
        <path id="_137995520" d="M205.525,40.111a.709.709,0,0,1,.654.737.833.833,0,0,1-.562.724l.512,1.1h-.453l-.538-1.125h-.61v1.125h-.472V40.111Zm-1,1.082h.914a.33.33,0,0,0,.281-.371.359.359,0,0,0-.313-.352h-.883Z" transform="translate(-33.619 -9.029)" fill="#fff"/>
        <path id="_138002232" d="M204.783,43.459a2.245,2.245,0,1,0-2.245-2.245A2.244,2.244,0,0,0,204.783,43.459ZM202.9,41.2a1.879,1.879,0,1,1,1.88,1.881A1.879,1.879,0,0,1,202.9,41.2Z" transform="translate(-33.373 -8.844)" fill="#fff"/>
        <path id="_137713304" d="M.665,44.168l97.928,2.522,97.93-2.522V43.015l-97.93-2.526L.665,43.015Z" transform="translate(-0.665 -9.09)" fill="#f6d900"/>
        <g id="Group_57" data-name="Group 57" transform="translate(0.469)">
          <path id="_137792048" d="M41.114,4.754h9.351V22.141H62.222v5.052H41.114Z" transform="translate(-7.688 -3.3)" fill="#343e8b"/>
          <path id="_137791288" d="M179.934,28.093c-7.286,0-13.416-2.168-13.416-8.141V4.754h9.049v14.5c0,2.807,2.074,4.089,4.366,4.089s4.366-1.282,4.366-4.089V4.754h9.048v15.2C193.349,25.924,187.223,28.093,179.934,28.093Z" transform="translate(-28.007 -3.3)" fill="#343e8b"/>
          <path id="_137791360" d="M217.7,10.58h9.565c-.5-5.153-7.756-6.692-13.378-6.692s-12.939,1.838-12.939,7.46c0,4.108,4.018,5.422,6.838,5.993,2,.4,5.336.972,7,1.339,2.321.508,3.522.98,3.522,2.348,0,1.463-1.349,2.211-4.12,2.211-2.626,0-4.2-.817-4.632-2.669h-9.746c.572,6.113,8.4,7.449,14.586,7.449,6.22,0,13.652-1.48,13.652-7.538,0-3.289-2.119-5.478-7.334-6.521-2.729-.546-6.513-1.257-7.968-1.507-1.927-.336-2.615-1.03-2.615-1.978,0-.977.936-2,3.638-2,2.284,0,3.519.667,3.927,2.106Z" transform="translate(-33.402 -3.16)" fill="#343e8b"/>
          <path id="_137708120" d="M150.9,18.932c6.733,0,8.447-4.282,8.447-7.018,0-2.518-1.449-7.159-8.437-7.159h-18.1V27.193H141.7V18.932H150.9Zm-9.207-4.9V9.656h5.932c1.478,0,2.742.69,2.742,2.116,0,1.256-.726,2.26-2.753,2.26H141.7Z" transform="translate(-22.545 -3.3)" fill="#343e8b"/>
          <path id="_137709352" d="M76.1,5.3l.255-.547H85.74L75.979,19.638v7.555H67.1V19.638L57.374,4.754h9.348l.261.547,4.23,7.429c.279.477.363.477.671,0L76.1,5.3Z" transform="translate(-10.322 -3.3)" fill="#343e8b"/>
          <path id="_137710928" d="M110.132,27.193l.165-.447,4.767-11.086c.123-.291.411-.213.415.042v11.49h7.654V4.754h-9.25l-.17.483-5.7,12.871c-.21.488-.406.486-.616,0L101.7,5.237l-.171-.483H92.273V27.193h7.658V15.7c0-.256.289-.334.414-.042l4.762,11.086.169.447h4.856Z" transform="translate(-15.977 -3.3)" fill="#343e8b"/>
          <path id="_137711944" d="M32.538,15.809c0,7.538-6.537,12.077-15.657,12.077S1.225,23.347,1.225,15.809,7.762,3.73,16.881,3.73,32.538,8.267,32.538,15.809Zm-9.413,0c0-4.539-2.349-7.342-6.244-7.342s-6.242,2.8-6.242,7.342,2.346,7.339,6.242,7.339S23.125,20.347,23.125,15.809Z" transform="translate(-1.225 -3.134)" fill="#343e8b"/>
          <path id="_137715720" d="M236.553,4.359a.832.832,0,0,1,.767.865.981.981,0,0,1-.66.85l.6,1.292h-.532l-.632-1.32h-.716v1.32h-.553V4.359ZM235.381,5.63h1.073a.387.387,0,0,0,.33-.436.422.422,0,0,0-.366-.415h-1.036V5.63Z" transform="translate(-39.074 -3.236)" fill="#343e8b"/>
          <path id="_137715792" d="M235.68,8.289a2.635,2.635,0,1,0-2.634-2.634A2.634,2.634,0,0,0,235.68,8.289Zm-2.205-2.655a2.206,2.206,0,1,1,2.205,2.207A2.205,2.205,0,0,1,233.474,5.634Z" transform="translate(-38.786 -3.019)" fill="#343e8b"/>
        </g>
      </g>
    </g>
    <rect id="Rectangle_148" data-name="Rectangle 148" width="328" height="100" rx="9" transform="translate(-2033 3609)" fill="#1a1a1a" style="mix-blend-mode: color;isolation: isolate"/>
    <rect id="Rectangle_151" data-name="Rectangle 151" width="328" height="100" rx="9" transform="translate(-2033 3609)" fill="#fff" style="mix-blend-mode: soft-light;isolation: isolate"/>
    <g id="Rectangle_105" data-name="Rectangle 105" transform="translate(-2034 3609)" fill="none" stroke="#f5f7fa" stroke-width="4">
      <rect width="329" height="100" rx="9" stroke="none"/>
      <rect x="2" y="2" width="325" height="96" rx="7" fill="none"/>
    </g>
  </g>
</svg>
