<svg xmlns="http://www.w3.org/2000/svg" xmlns:xlink="http://www.w3.org/1999/xlink" width="329" height="100" viewBox="0 0 329 100">
  <defs>
    <clipPath id="clip-path">
      <path id="path3880" d="M0,0H80V62.219H0Z" fill="#fff"/>
    </clipPath>
  </defs>
  <g id="ref-logo-ppf" transform="translate(1320 -3609)">
    <rect id="Rectangle_262" data-name="Rectangle 262" width="329" height="100" rx="9" transform="translate(-1320 3609)" fill="#fff"/>
    <g id="ppf-logo" transform="translate(-1195.5 3628)" clip-path="url(#clip-path)">
      <path id="path3875" d="M80,0H0V62.219H80ZM28.427,16.73c0,4.286-4.839,6.83-8.738,6.83a6.028,6.028,0,0,1-1.549-.138v-.968c3.111,0,5.448-1.6,5.448-5.392S21.32,11.255,18,11.255a8.1,8.1,0,0,0-1.632.194V31.386l4.245,1.936v.1H8.3v-.1l3.457-1.936V11.753L8.3,9.817v-.1H18.887c7.134,0,9.54,3.318,9.54,7.01Zm22.122,0c0,4.286-4.839,6.83-8.738,6.83a6.086,6.086,0,0,1-1.562-.138v-.968c3.125,0,5.461-1.6,5.461-5.392s-2.3-5.807-5.614-5.807a7.757,7.757,0,0,0-1.6.194V31.386l4.231,1.936v.1H30.418v-.1l3.429-1.936V11.753L30.418,9.817v-.1H41c7.148,0,9.54,3.318,9.54,7.01Zm20.684.415h-.1l-3.8-5.807H60.6v9.125h4.148l2.9-4.217h.1V26.312h-.1l-2.959-4.231H60.588v9.305l4.231,1.936v.1H52.541v-.1l3.429-1.936V11.753L52.541,9.817v-.1H71.234v7.439Z" fill="#002c5a"/>
    </g>
    <rect id="Rectangle_263" data-name="Rectangle 263" width="328" height="100" rx="9" transform="translate(-1319 3609)" fill="#1a1a1a" style="mix-blend-mode: color;isolation: isolate"/>
    <rect id="Rectangle_264" data-name="Rectangle 264" width="328" height="100" rx="9" transform="translate(-1319 3609)" fill="#fff" style="mix-blend-mode: soft-light;isolation: isolate"/>
    <g id="Rectangle_265" data-name="Rectangle 265" transform="translate(-1320 3609)" fill="none" stroke="#f5f7fa" stroke-width="4">
      <rect width="329" height="100" rx="9" stroke="none"/>
      <rect x="2" y="2" width="325" height="96" rx="7" fill="none"/>
    </g>
  </g>
</svg>
