<svg xmlns="http://www.w3.org/2000/svg" width="329" height="100" viewBox="0 0 329 100">
  <g id="ref-logo-dermacol" transform="translate(1141 -3739)">
    <rect id="Rectangle_282" data-name="Rectangle 282" width="329" height="100" rx="9" transform="translate(-1141 3739)" fill="#fff"/>
    <g id="dermacol-logo" transform="translate(-1112.139 3760.908)">
      <path id="Path_84" data-name="Path 84" d="M236.679,92.98c0,2.864-1.916,6.231-5.812,6.231h-5.159V86.644h5.159c3.747-.03,5.812,3.492,5.812,6.336m5.852-.115c0-5.608-5.089-8.481-9.729-8.481H218.11v2h.4c1,0,1.522,1.133,1.522,2.44v8.047c0,1.3-.434,2.44-1.522,2.44h-.4v2.031H232.8c4.64,0,9.729-2.884,9.729-8.481m9.978,6.321v-5.3h8.267v-2.46h-8.237V86.589h8.222c1.5,0,2.33.5,2.539,1.646H265.2l-.215-3.832H244.871V86.43h.4c1,0,1.522,1.133,1.522,2.435v8.052c0,1.3-.439,2.435-1.522,2.435h-.4v2.05h20.455l.225-4.076H263.5a2.057,2.057,0,0,1-2.315,1.866Zm33.252-10a2.7,2.7,0,0,1-2.495,2.719h-6.8v-5.4h6.561a2.609,2.609,0,0,1,2.729,2.664m3.642,12.3h4.36v-2.07h-.369a1.566,1.566,0,0,1-1.661-1.292c-.225-1.232-.469-2.435-.619-3.028a2.454,2.454,0,0,0-2.42-1.626,4.354,4.354,0,0,0,2.938-4.246c0-3.053-2.115-4.859-5.413-4.859H269.023v2h.419c1,0,1.5,1.132,1.5,2.44v8.047c0,1.307-.389,2.44-1.527,2.44h-.4v2.04h9.409V99.271h-.4c-1.123,0-1.522-1-1.522-2.435V94.208h6.161c2.459,0,3.946,1.252,4.276,3.283.1.649.3,1.9.394,2.495.229,1.417.569,1.432,2.076,1.432m35.487-15h.384v-2h-7.708L311.23,96.178l-6.6-11.794h-7.528v2h.384c.963,0,1.447,1.133,1.447,2.44v8.062c0,1.3-.409,2.425-1.442,2.425h-.384v2.06h6.117V99.336h-.359c-1.033,0-1.442-1.152-1.442-2.455V88.325l7.044,13.041h2.993l6.825-13.136v8.436l.025.339c0,1.272-.434,2.365-1.447,2.365h-.379v2.035h8.826v-2.04h-.384c-1.033,0-1.442-1.133-1.442-2.44V88.879c0-1.3.5-2.44,1.447-2.44m17.651,7.538h-7.214l3.682-6.59Zm10.123,5.333h-.4c-.793,0-1.522-.644-2.654-2.495-.4-.664-6.74-12.473-6.74-12.473h-5.368l-7.483,12.941c-.644.883-1.3,2.036-2.24,2.036h-.364v2.06h7.084V99.3h-.359c-1.053,0-1.841-.594-.973-2.15l.574-.948h9.694s.274.5.5.933c.868,1.756-.085,2.165-.7,2.165h-.688v2.08h10.123ZM358,92.731a6.782,6.782,0,0,1,6.765-6.95c3.956,0,5.717,1.212,7.02,4.365h2.455s-.095-2.4-.15-3.333c-2.33-2-7.484-2.8-9.514-2.8-8.915,0-12.048,3.772-12.048,8.721s3.138,8.98,12.048,8.98a15.939,15.939,0,0,0,9.8-3.542c.045-1.277.18-2.854.185-3.936h-2.844c-.4,3.527-2.594,5.608-6.985,5.608a6.9,6.9,0,0,1-6.765-7.119m37.418.17c0,3.612-1.811,6.95-6.6,6.95s-6.576-3.378-6.576-7.119,1.641-6.95,6.576-6.95,6.6,3.492,6.6,7.119m5.163-.17C400.549,87.9,397.7,84,388.789,84s-12.049,3.772-12.049,8.721,3.138,8.98,12.049,8.98,11.759-4.166,11.759-8.98m17.561,3.667H416.2a2.993,2.993,0,0,1-2.953,2.749H408.98V88.844c0-1.3.5-2.435,1.522-2.435h.4v-2h-9.29v2.05h.4c1,0,1.5,1.133,1.5,2.44v8.047c0,1.3-.434,2.44-1.5,2.44h-.4v2.031h16.214Z" transform="translate(-182.471 -69.908)" fill="#ec008c"/>
      <path id="Path_85" data-name="Path 85" d="M365.443,127.85H362.23v.614l1.078.11v5.488l-1.078.11v.614h3.457v-.624l-1.078-.11v-1.926h.5c3.028,0,3.353-1.5,3.353-2.175C368.451,128.633,367.329,127.85,365.443,127.85Zm1.686,2.1c0,1-.624,1.5-1.856,1.5h-.664v-2.9h.614C366.506,128.533,367.129,129,367.129,129.95Z" transform="translate(-254.689 -91.881)" fill="#4d4d4f"/>
      <path id="Path_86" data-name="Path 86" d="M386.273,132.635a1.831,1.831,0,0,0-1-1.2,1.867,1.867,0,0,0,1.592-1.716c0-1.172-1.093-1.871-2.919-1.871H380.64v.614l1.078.11v5.488l-1.078.11v.614H384.1v-.624l-1.078-.11v-2.375h.464c.928,0,1.3.13,1.5.868l.474,1.631c.175.584.614.7,1.272.7a3.121,3.121,0,0,0,.863-.1l.08-.025v-.584l-.913-.095Zm-.718-2.914c0,.813-.629,1.277-1.731,1.277h-.808v-2.464h.918C385.045,128.534,385.554,128.923,385.554,129.721Z" transform="translate(-263.914 -91.881)" fill="#4d4d4f"/>
      <path id="Path_87" data-name="Path 87" d="M404.4,127.82v-.07h-.883l-2.47,6.231-1,.13v.614h2.879v-.614l-1.093-.13.569-1.447h2.539l.569,1.462-1.1.115v.614h3.338v-.614l-.918-.1Zm-1.721,4.046,1-2.569,1,2.569Z" transform="translate(-273.64 -91.831)" fill="#4d4d4f"/>
      <path id="Path_88" data-name="Path 88" d="M424.656,131.822l1.217.085v1.941a3.743,3.743,0,0,1-1.167.175,2.886,2.886,0,0,1-.08-5.762,2.919,2.919,0,0,1,1.247.269l.224,1.162h.918l-.055-1.636-.06-.03a4.989,4.989,0,0,0-2.37-.5c-2.375,0-4.031,1.5-4.031,3.612a3.676,3.676,0,0,0,3.991,3.612,6.047,6.047,0,0,0,2.584-.6l.065-.03v-2.24l.709-.055V131.2h-3.228Z" transform="translate(-283.888 -91.717)" fill="#4d4d4f"/>
      <path id="Path_89" data-name="Path 89" d="M445.585,128.439l1.187.14v3.068c0,1.651-.544,2.325-1.881,2.325-1.252,0-1.811-.659-1.811-2.145v-3.283l1.2-.12v-.614H440.82v.614l.963.095v3.572c0,1.8,1.038,2.784,2.919,2.784s2.844-1.063,2.844-2.993v-3.348l1-.12V127.8H445.55Z" transform="translate(-294.07 -91.856)" fill="#4d4d4f"/>
      <path id="Path_90" data-name="Path 90" d="M467.808,132.759l-.259,1.277H464.77v-2.46H466.3l.15.948h.733V129.91h-.728l-.155.958h-1.527v-2.325h2.554l.255,1.282h.858l-.09-2H462.39v.614l1.078.11v5.488l-1.078.11v.614h6.181l.095-2Z" transform="translate(-304.879 -91.871)" fill="#4d4d4f"/>
    </g>
    <rect id="Rectangle_283" data-name="Rectangle 283" width="328" height="100" rx="9" transform="translate(-1140 3739)" fill="#1a1a1a" style="mix-blend-mode: color;isolation: isolate"/>
    <rect id="Rectangle_284" data-name="Rectangle 284" width="328" height="100" rx="9" transform="translate(-1140 3739)" fill="#fff" style="mix-blend-mode: soft-light;isolation: isolate"/>
    <g id="Rectangle_285" data-name="Rectangle 285" transform="translate(-1141 3739)" fill="none" stroke="#f5f7fa" stroke-width="4">
      <rect width="329" height="100" rx="9" stroke="none"/>
      <rect x="2" y="2" width="325" height="96" rx="7" fill="none"/>
    </g>
  </g>
</svg>
