<svg xmlns="http://www.w3.org/2000/svg" width="140" height="50.168" viewBox="0 0 140 50.168">
  <g id="tnt-logo" transform="translate(575.844 -76.092)">
    <path id="Path_71" data-name="Path 71" d="M-528.177,89.4a25.336,25.336,0,0,1,22.316-13.223,25.336,25.336,0,0,1,22.356,13.3,25.336,25.336,0,0,1,22.356-13.3,25.174,25.174,0,0,1,25.306,25.042A25.174,25.174,0,0,1-461.15,126.26a25.337,25.337,0,0,1-22.356-13.3,25.337,25.337,0,0,1-22.356,13.3,25.337,25.337,0,0,1-22.361-13.307,25.34,25.34,0,0,1-22.316,13.223,25.175,25.175,0,0,1-25.306-25.042,25.174,25.174,0,0,1,25.306-25.042A25.335,25.335,0,0,1-528.177,89.4m67.028-7.37a19.29,19.29,0,0,0-19.39,19.189,19.289,19.289,0,0,0,19.39,19.188,19.29,19.29,0,0,0,19.391-19.188A19.29,19.29,0,0,0-461.15,82.029m-44.712,0a19.29,19.29,0,0,0-19.391,19.189,19.29,19.29,0,0,0,19.391,19.188,19.289,19.289,0,0,0,19.39-19.188,19.29,19.29,0,0,0-19.39-19.189m-44.677-.084a19.29,19.29,0,0,0-19.391,19.189,19.29,19.29,0,0,0,19.391,19.188,19.29,19.29,0,0,0,19.391-19.188,19.29,19.29,0,0,0-19.391-19.189" fill="#aaa"/>
    <path id="Path_72" data-name="Path 72" d="M-470.06,90.173h22.168v6.192h-6l-1.374-.067v16.5h-7.42V96.3l-1.378.068h-6Z" transform="translate(-1.987 -0.265)" fill="#aaa"/>
    <path id="Path_73" data-name="Path 73" d="M-561.558,90.173h22.168v6.192h-6l-1.373-.067v16.5h-7.42V96.3l-1.378.068h-6Z" transform="translate(-0.268 -0.265)" fill="#aaa"/>
    <path id="Path_74" data-name="Path 74" d="M-508.778,112.8l0-11.535.275.437,7.888,11.1,6.911,0V90.173h-6.981v11.535l-.274-.437-7.925-11.1h-6.9V112.8Z" transform="translate(-1.128 -0.264)" fill="#aaa"/>
  </g>
</svg>
