<svg xmlns="http://www.w3.org/2000/svg" width="48" height="48" viewBox="0 0 48 48">
  <g id="tw-icon-share" transform="translate(-520 -1147)">
    <circle id="Ellipse_47" data-name="Ellipse 47" cx="24" cy="24" r="24" transform="translate(520 1147)" fill="#f5f7fa"/>
    <path id="Path_1" data-name="Path 1" d="M500.9,287.375a10.5,10.5,0,0,1-3.017.827A5.267,5.267,0,0,0,500.2,285.3a10.513,10.513,0,0,1-3.335,1.275,5.257,5.257,0,0,0-8.95,4.79,14.911,14.911,0,0,1-10.826-5.488,5.258,5.258,0,0,0,1.626,7.012,5.229,5.229,0,0,1-2.379-.657c0,.022,0,.044,0,.066a5.255,5.255,0,0,0,4.213,5.15,5.265,5.265,0,0,1-2.372.09,5.257,5.257,0,0,0,4.906,3.648,10.538,10.538,0,0,1-6.523,2.248,10.7,10.7,0,0,1-1.253-.073A14.937,14.937,0,0,0,498.3,290.773q0-.341-.015-.679A10.677,10.677,0,0,0,500.9,287.375Z" transform="translate(55.895 875.688)" fill="#633998"/>
  </g>
</svg>
