<svg xmlns="http://www.w3.org/2000/svg" width="64" height="76.291" viewBox="0 0 64 76.291">
  <g id="ups-logo" transform="translate(145.7 0)">
    <path id="Path_67" data-name="Path 67" d="M-143.16,44.948c0,7.111,2.642,13.036,7.629,17.128,4.48,3.67,18.051,9.771,21.825,11.438,3.779-1.668,17.351-7.768,21.825-11.438,5-4.092,7.637-10.017,7.637-17.128V7.56c-18.888-1.754-41.232-.679-58.917,15.542Zm29.454,31.343s-17.9-7.716-23.43-12.251c-5.781-4.74-8.564-11.393-8.564-19.092V7.018C-131.57-.588-113.706.011-113.706.011s17.872-.6,32.006,7.007v37.93c0,7.7-2.786,14.352-8.568,19.092-5.529,4.535-23.438,12.251-23.438,12.251" transform="translate(0 0)" fill="#aaa"/>
    <path id="Path_68" data-name="Path 68" d="M-90.53,42.486c2.483,1.459,3.484,2.42,3.524,4.192.048,1.968-1.312,3.154-3.382,3.145a9.013,9.013,0,0,1-5.4-2.3v5.2a12.39,12.39,0,0,0,6.2,1.749c5.579,0,8.068-3.941,8.178-7.548.1-3.292-.807-5.784-5.522-8.553-2.107-1.234-3.769-2.047-3.712-4.1.054-2,1.722-2.708,3.317-2.693a7.564,7.564,0,0,1,5.059,2.32V28.987a9.67,9.67,0,0,0-6.194-1.835c-3.715.11-7.6,2.8-7.571,7.356.009,3,.845,5.248,5.5,7.977" transform="translate(-5.11 -2.793)" fill="#aaa"/>
    <path id="Path_69" data-name="Path 69" d="M-111.923,32.105a4.924,4.924,0,0,1,2-.406c3.275,0,4.631,2.615,4.631,8.939,0,6.168-1.551,9.147-4.8,9.147a5.333,5.333,0,0,1-1.831-.34Zm0,21.955a9,9,0,0,0,2.54.319c6.264,0,9.86-5.643,9.86-13.887,0-8.226-3.7-13.339-10.439-13.339a13.622,13.622,0,0,0-7.6,2.009v36.78h5.642Z" transform="translate(-2.894 -2.793)" fill="#aaa"/>
    <path id="Path_70" data-name="Path 70" d="M-131.242,54.541a14.958,14.958,0,0,0,8.5-2.268V27.793h-5.634v21.27a4.724,4.724,0,0,1-2.671.691c-2.586,0-2.972-2.373-2.972-3.972V27.793h-5.642V45.53c0,5.982,2.832,9.011,8.414,9.011" transform="translate(-0.622 -2.859)" fill="#aaa"/>
  </g>
</svg>
